<?xml version="1.0" encoding="UTF-8" standalone="no"?>
<!DOCTYPE svg PUBLIC "-//W3C//DTD SVG 1.1//EN" "http://www.w3.org/Graphics/SVG/1.1/DTD/svg11.dtd">
<svg width="100%" height="100%" viewBox="0 0 800 300" version="1.1" xmlns="http://www.w3.org/2000/svg" xmlns:xlink="http://www.w3.org/1999/xlink" xml:space="preserve" xmlns:serif="http://www.serif.com/" style="fill-rule:evenodd;clip-rule:evenodd;stroke-linecap:round;stroke-linejoin:round;stroke-miterlimit:1.5;">
    <rect x="0" y="0" width="800" height="300" style="fill:white;fill-opacity:0.49;"/>
    <g>
        <g>
            <path d="M152.67,212.454C152.67,206.84 148.112,202.282 142.499,202.282L68.841,202.282C63.228,202.282 58.67,206.84 58.67,212.454L58.67,259.006C58.67,264.62 63.228,269.177 68.841,269.177L142.499,269.177C148.112,269.177 152.67,264.62 152.67,259.006L152.67,212.454ZM94.658,217.525C94.332,217.324 93.991,217.172 93.633,217.071C93.275,216.97 92.9,216.92 92.51,216.92C91.735,216.92 91.12,217.047 90.664,217.301C90.462,217.411 90.361,217.532 90.361,217.662C90.361,217.812 90.498,217.958 90.771,218.102C90.98,218.206 91.445,218.307 92.168,218.404C93.496,218.587 94.42,218.769 94.941,218.951C95.625,219.192 96.152,219.55 96.523,220.025C96.894,220.501 97.08,221.002 97.08,221.529C97.08,222.245 96.764,222.844 96.133,223.326C95.228,224.023 94.052,224.371 92.607,224.371C92.028,224.371 91.492,224.321 91.001,224.22C90.509,224.119 90.058,223.971 89.648,223.775C89.551,223.86 89.446,223.925 89.336,223.971C89.225,224.016 89.111,224.039 88.994,224.039C88.681,224.039 88.432,223.936 88.247,223.731C88.061,223.526 87.969,223.183 87.969,222.701L87.969,222.027C87.969,221.546 88.061,221.202 88.247,220.997C88.432,220.792 88.675,220.689 88.974,220.689C89.215,220.689 89.417,220.756 89.58,220.89C89.743,221.023 89.87,221.253 89.961,221.578C90.267,221.838 90.635,222.035 91.064,222.169C91.494,222.302 91.989,222.369 92.549,222.369C93.467,222.369 94.179,222.226 94.687,221.939C94.928,221.796 95.049,221.646 95.049,221.49C95.049,221.23 94.876,221.015 94.531,220.846C94.186,220.676 93.473,220.533 92.392,220.416C90.784,220.247 89.71,219.921 89.17,219.439C88.629,218.964 88.359,218.378 88.359,217.682C88.359,216.965 88.662,216.37 89.267,215.894C90.088,215.243 91.162,214.918 92.49,214.918C92.952,214.918 93.397,214.962 93.823,215.05C94.249,215.138 94.658,215.273 95.049,215.455C95.172,215.364 95.288,215.296 95.395,215.25C95.503,215.204 95.602,215.182 95.693,215.182C95.967,215.182 96.194,215.284 96.377,215.489C96.559,215.694 96.65,216.038 96.65,216.519L96.65,217.008C96.65,217.444 96.598,217.74 96.494,217.896C96.286,218.196 96.002,218.346 95.644,218.346C95.403,218.346 95.192,218.271 95.01,218.121C94.827,217.971 94.71,217.773 94.658,217.525ZM106.66,217.525C106.334,217.324 105.993,217.172 105.635,217.071C105.276,216.97 104.902,216.92 104.511,216.92C103.737,216.92 103.122,217.047 102.666,217.301C102.464,217.411 102.363,217.532 102.363,217.662C102.363,217.812 102.5,217.958 102.773,218.102C102.982,218.206 103.447,218.307 104.17,218.404C105.498,218.587 106.422,218.769 106.943,218.951C107.627,219.192 108.154,219.55 108.525,220.025C108.896,220.501 109.082,221.002 109.082,221.529C109.082,222.245 108.766,222.844 108.135,223.326C107.23,224.023 106.054,224.371 104.609,224.371C104.03,224.371 103.494,224.321 103.003,224.22C102.511,224.119 102.06,223.971 101.65,223.775C101.552,223.86 101.448,223.925 101.338,223.971C101.227,224.016 101.113,224.039 100.996,224.039C100.683,224.039 100.434,223.936 100.249,223.731C100.063,223.526 99.97,223.183 99.97,222.701L99.97,222.027C99.97,221.546 100.063,221.202 100.249,220.997C100.434,220.792 100.677,220.689 100.976,220.689C101.217,220.689 101.419,220.756 101.582,220.89C101.745,221.023 101.872,221.253 101.963,221.578C102.269,221.838 102.636,222.035 103.066,222.169C103.496,222.302 103.991,222.369 104.551,222.369C105.469,222.369 106.181,222.226 106.689,221.939C106.93,221.796 107.051,221.646 107.051,221.49C107.051,221.23 106.878,221.015 106.533,220.846C106.188,220.676 105.475,220.533 104.394,220.416C102.786,220.247 101.712,219.921 101.172,219.439C100.631,218.964 100.361,218.378 100.361,217.682C100.361,216.965 100.664,216.37 101.269,215.894C102.09,215.243 103.164,214.918 104.492,214.918C104.954,214.918 105.399,214.962 105.825,215.05C106.251,215.138 106.66,215.273 107.051,215.455C107.174,215.364 107.29,215.296 107.397,215.25C107.505,215.204 107.604,215.182 107.695,215.182C107.969,215.182 108.196,215.284 108.379,215.489C108.561,215.694 108.652,216.038 108.652,216.519L108.652,217.008C108.652,217.444 108.6,217.74 108.496,217.896C108.288,218.196 108.004,218.346 107.646,218.346C107.405,218.346 107.194,218.271 107.011,218.121C106.829,217.971 106.712,217.773 106.66,217.525ZM114.433,211.383L114.433,215.65C114.85,215.403 115.272,215.219 115.698,215.099C116.124,214.978 116.556,214.918 116.992,214.918C117.682,214.918 118.297,215.035 118.838,215.269C119.378,215.504 119.826,215.873 120.18,216.378C120.535,216.882 120.713,217.519 120.713,218.287L120.713,222.047C121.22,222.047 121.552,222.096 121.709,222.193C122.021,222.395 122.177,222.682 122.177,223.053C122.177,223.346 122.077,223.585 121.875,223.77C121.673,223.956 121.331,224.049 120.849,224.049L118.564,224.049C118.089,224.049 117.749,223.956 117.544,223.77C117.339,223.585 117.236,223.342 117.236,223.043C117.236,222.678 117.392,222.395 117.705,222.193C117.868,222.089 118.2,222.04 118.701,222.047L118.701,218.424C118.701,217.909 118.584,217.548 118.349,217.34C118.043,217.06 117.591,216.92 116.992,216.92C116.549,216.92 116.157,217.006 115.815,217.179C115.473,217.351 115.013,217.724 114.433,218.297L114.433,222.047C114.948,222.047 115.28,222.096 115.429,222.193C115.748,222.395 115.908,222.682 115.908,223.053C115.908,223.346 115.805,223.585 115.6,223.77C115.395,223.956 115.052,224.049 114.57,224.049L112.295,224.049C111.813,224.049 111.469,223.956 111.264,223.77C111.059,223.585 110.957,223.342 110.957,223.043C110.957,222.678 111.116,222.395 111.435,222.193C111.592,222.089 111.924,222.04 112.431,222.047L112.431,213.385L112.09,213.385C111.608,213.385 111.264,213.292 111.059,213.106C110.854,212.921 110.752,212.678 110.752,212.379C110.752,212.086 110.854,211.847 111.059,211.661C111.264,211.476 111.608,211.383 112.09,211.383L114.433,211.383ZM70.605,218.346L64.121,214.752C63.795,214.57 63.579,214.407 63.471,214.264C63.364,214.12 63.31,213.938 63.31,213.717C63.31,213.437 63.411,213.196 63.613,212.994C63.815,212.792 64.052,212.691 64.326,212.691C64.495,212.691 64.756,212.786 65.107,212.975L74.765,218.346L65.107,223.717C64.756,223.912 64.495,224.01 64.326,224.01C64.052,224.01 63.815,223.909 63.613,223.707C63.411,223.505 63.31,223.261 63.31,222.975C63.31,222.753 63.364,222.571 63.471,222.428C63.579,222.284 63.795,222.122 64.121,221.939L70.605,218.346Z"/>
        </g>
    </g>
    <g transform="matrix(1.91279,0,0,1,-309.965,-8.86688)">
        <path d="M310,72.867L310,61.954L473.85,61.954L473.85,51.821L482,67.41L473.85,83L473.85,72.867L310,72.867Z"/>
    </g>
    <g transform="matrix(2.69288e-17,-0.439781,1,6.12323e-17,604.59,320.48)">
        <path d="M310,72.867L310,61.954L446.551,61.954L446.551,51.821L482,67.41L446.551,83L446.551,72.867L310,72.867Z"/>
    </g>
    <g transform="matrix(0.632814,0,0,1,-19.1723,168.32)">
        <path d="M310,72.867L310,61.954L457.364,61.954L457.364,51.821L482,67.41L457.364,83L457.364,72.867L310,72.867Z"/>
    </g>
    <g transform="matrix(0.820513,0,0,0.820513,-14.0299,-18.0172)">
        <g transform="matrix(1.66667,0,0,1.66667,-131.333,-99.3333)">
            <circle cx="236" cy="119" r="12" style="stroke:black;stroke-width:2.56px;"/>
        </g>
        <g transform="matrix(1,0,0,1,-5,-25)">
            <rect x="287" y="118" width="53" height="12" style="stroke:black;stroke-width:4.27px;"/>
        </g>
        <g transform="matrix(0.188679,0,0,1.41667,257.349,-64.1667)">
            <rect x="287" y="118" width="53" height="12" style="stroke:black;stroke-width:4.22px;"/>
        </g>
        <g transform="matrix(0.188679,0,0,0.708333,266.849,19.4167)">
            <rect x="287" y="118" width="53" height="12" style="stroke:black;stroke-width:8.23px;"/>
        </g>
    </g>
    <g transform="matrix(0.820513,0,0,0.820513,-14.0299,65.3406)">
        <g transform="matrix(1.66667,0,0,1.66667,-131.333,-99.3333)">
            <circle cx="236" cy="119" r="12" style="stroke:black;stroke-width:2.56px;"/>
        </g>
        <g transform="matrix(1,0,0,1,-5,-25)">
            <rect x="287" y="118" width="53" height="12" style="stroke:black;stroke-width:4.27px;"/>
        </g>
        <g transform="matrix(0.169811,0,0,1.41667,250.764,-91.1667)">
            <rect x="287" y="118" width="53" height="12" style="stroke:black;stroke-width:4.23px;"/>
        </g>
        <g transform="matrix(0.169811,0,0,0.916667,272.764,-26.1667)">
            <rect x="287" y="118" width="53" height="12" style="stroke:black;stroke-width:6.47px;"/>
        </g>
    </g>
    <g>
        <g>
            <path d="M400,200L300,200L300,272L400,272L400,200ZM335.69,236.58C335.25,236.033 334.67,235.76 333.95,235.76C333.697,235.76 333.45,235.82 333.21,235.94C332.97,236.06 332.85,236.267 332.85,236.56C332.85,236.8 332.973,236.977 333.22,237.09C333.467,237.203 333.78,237.303 334.16,237.39C334.54,237.477 334.947,237.57 335.38,237.67C335.813,237.77 336.22,237.927 336.6,238.14C336.98,238.353 337.293,238.643 337.54,239.01C337.787,239.377 337.91,239.867 337.91,240.48C337.91,241.107 337.773,241.623 337.5,242.03C337.227,242.437 336.877,242.763 336.45,243.01C336.023,243.257 335.543,243.43 335.01,243.53C334.477,243.63 333.95,243.68 333.43,243.68C332.75,243.68 332.063,243.583 331.37,243.39C330.677,243.197 330.09,242.853 329.61,242.36L331.43,240.34C331.71,240.687 332.02,240.95 332.36,241.13C332.7,241.31 333.097,241.4 333.55,241.4C333.897,241.4 334.21,241.35 334.49,241.25C334.77,241.15 334.91,240.967 334.91,240.7C334.91,240.447 334.787,240.257 334.54,240.13C334.293,240.003 333.98,239.897 333.6,239.81C333.22,239.723 332.813,239.63 332.38,239.53C331.947,239.43 331.54,239.28 331.16,239.08C330.78,238.88 330.467,238.597 330.22,238.23C329.973,237.863 329.85,237.373 329.85,236.76C329.85,236.187 329.967,235.693 330.2,235.28C330.433,234.867 330.74,234.527 331.12,234.26C331.5,233.993 331.937,233.797 332.43,233.67C332.923,233.543 333.423,233.48 333.93,233.48C334.57,233.48 335.217,233.573 335.87,233.76C336.523,233.947 337.077,234.28 337.53,234.76L335.69,236.58ZM344.95,236.58C344.51,236.033 343.93,235.76 343.21,235.76C342.957,235.76 342.71,235.82 342.47,235.94C342.23,236.06 342.11,236.267 342.11,236.56C342.11,236.8 342.233,236.977 342.48,237.09C342.727,237.203 343.04,237.303 343.42,237.39C343.8,237.477 344.207,237.57 344.64,237.67C345.073,237.77 345.48,237.927 345.86,238.14C346.24,238.353 346.553,238.643 346.8,239.01C347.047,239.377 347.17,239.867 347.17,240.48C347.17,241.107 347.033,241.623 346.76,242.03C346.487,242.437 346.137,242.763 345.71,243.01C345.283,243.257 344.803,243.43 344.27,243.53C343.737,243.63 343.21,243.68 342.69,243.68C342.01,243.68 341.323,243.583 340.63,243.39C339.937,243.197 339.35,242.853 338.87,242.36L340.69,240.34C340.97,240.687 341.28,240.95 341.62,241.13C341.96,241.31 342.357,241.4 342.81,241.4C343.157,241.4 343.47,241.35 343.75,241.25C344.03,241.15 344.17,240.967 344.17,240.7C344.17,240.447 344.047,240.257 343.8,240.13C343.553,240.003 343.24,239.897 342.86,239.81C342.48,239.723 342.073,239.63 341.64,239.53C341.207,239.43 340.8,239.28 340.42,239.08C340.04,238.88 339.727,238.597 339.48,238.23C339.233,237.863 339.11,237.373 339.11,236.76C339.11,236.187 339.227,235.693 339.46,235.28C339.693,234.867 340,234.527 340.38,234.26C340.76,233.993 341.197,233.797 341.69,233.67C342.183,233.543 342.683,233.48 343.19,233.48C343.83,233.48 344.477,233.573 345.13,233.76C345.783,233.947 346.337,234.28 346.79,234.76L344.95,236.58ZM370.39,243.44L367.63,243.44L367.63,242.16L367.59,242.16C367.47,242.333 367.313,242.51 367.12,242.69C366.927,242.87 366.7,243.033 366.44,243.18C366.18,243.327 365.893,243.447 365.58,243.54C365.267,243.633 364.943,243.68 364.61,243.68C363.89,243.68 363.237,243.557 362.65,243.31C362.063,243.063 361.56,242.717 361.14,242.27C360.72,241.823 360.397,241.293 360.17,240.68C359.943,240.067 359.83,239.393 359.83,238.66C359.83,237.98 359.933,237.33 360.14,236.71C360.347,236.09 360.64,235.54 361.02,235.06C361.4,234.58 361.863,234.197 362.41,233.91C362.957,233.623 363.577,233.48 364.27,233.48C364.897,233.48 365.48,233.577 366.02,233.77C366.56,233.963 367.003,234.293 367.35,234.76L367.39,234.76L367.39,228.32L370.39,228.32L370.39,243.44ZM351.71,228.32L351.71,235.04L351.75,235.04C351.817,234.853 351.93,234.667 352.09,234.48C352.25,234.293 352.443,234.127 352.67,233.98C352.897,233.833 353.163,233.713 353.47,233.62C353.777,233.527 354.11,233.48 354.47,233.48C355.23,233.48 355.843,233.597 356.31,233.83C356.777,234.063 357.14,234.387 357.4,234.8C357.66,235.213 357.837,235.7 357.93,236.26C358.023,236.82 358.07,237.427 358.07,238.08L358.07,243.44L355.07,243.44L355.07,238.68C355.07,238.4 355.06,238.11 355.04,237.81C355.02,237.51 354.96,237.233 354.86,236.98C354.76,236.727 354.607,236.52 354.4,236.36C354.193,236.2 353.897,236.12 353.51,236.12C353.123,236.12 352.81,236.19 352.57,236.33C352.33,236.47 352.147,236.657 352.02,236.89C351.893,237.123 351.81,237.387 351.77,237.68C351.73,237.973 351.71,238.28 351.71,238.6L351.71,243.44L348.71,243.44L348.71,228.32L351.71,228.32ZM367.63,238.58C367.63,237.847 367.42,237.253 367,236.8C366.58,236.347 365.99,236.12 365.23,236.12C364.47,236.12 363.88,236.347 363.46,236.8C363.04,237.253 362.83,237.847 362.83,238.58C362.83,239.313 363.04,239.907 363.46,240.36C363.88,240.813 364.47,241.04 365.23,241.04C365.99,241.04 366.58,240.813 367,240.36C367.42,239.907 367.63,239.313 367.63,238.58Z"/>
        </g>
    </g>
    <g>
        <g>
            <path d="M720,200L620,200L620,272L720,272L720,200ZM635.89,236.58C635.45,236.033 634.87,235.76 634.15,235.76C633.897,235.76 633.65,235.82 633.41,235.94C633.17,236.06 633.05,236.267 633.05,236.56C633.05,236.8 633.173,236.977 633.42,237.09C633.667,237.203 633.98,237.303 634.36,237.39C634.74,237.477 635.147,237.57 635.58,237.67C636.013,237.77 636.42,237.927 636.8,238.14C637.18,238.353 637.493,238.643 637.74,239.01C637.987,239.377 638.11,239.867 638.11,240.48C638.11,241.107 637.973,241.623 637.7,242.03C637.427,242.437 637.077,242.763 636.65,243.01C636.223,243.257 635.743,243.43 635.21,243.53C634.677,243.63 634.15,243.68 633.63,243.68C632.95,243.68 632.263,243.583 631.57,243.39C630.877,243.197 630.29,242.853 629.81,242.36L631.63,240.34C631.91,240.687 632.22,240.95 632.56,241.13C632.9,241.31 633.297,241.4 633.75,241.4C634.097,241.4 634.41,241.35 634.69,241.25C634.97,241.15 635.11,240.967 635.11,240.7C635.11,240.447 634.987,240.257 634.74,240.13C634.493,240.003 634.18,239.897 633.8,239.81C633.42,239.723 633.013,239.63 632.58,239.53C632.147,239.43 631.74,239.28 631.36,239.08C630.98,238.88 630.667,238.597 630.42,238.23C630.173,237.863 630.05,237.373 630.05,236.76C630.05,236.187 630.167,235.693 630.4,235.28C630.633,234.867 630.94,234.527 631.32,234.26C631.7,233.993 632.137,233.797 632.63,233.67C633.123,233.543 633.623,233.48 634.13,233.48C634.77,233.48 635.417,233.573 636.07,233.76C636.723,233.947 637.277,234.28 637.73,234.76L635.89,236.58ZM657.71,236.86C657.563,236.647 657.357,236.47 657.09,236.33C656.823,236.19 656.537,236.12 656.23,236.12C655.47,236.12 654.88,236.347 654.46,236.8C654.04,237.253 653.83,237.847 653.83,238.58C653.83,239.313 654.04,239.907 654.46,240.36C654.88,240.813 655.47,241.04 656.23,241.04C656.563,241.04 656.85,240.967 657.09,240.82C657.33,240.673 657.537,240.5 657.71,240.3L659.69,242.38C659.223,242.86 658.673,243.197 658.04,243.39C657.407,243.583 656.803,243.68 656.23,243.68C655.483,243.68 654.78,243.56 654.12,243.32C653.46,243.08 652.887,242.737 652.4,242.29C651.913,241.843 651.53,241.307 651.25,240.68C650.97,240.053 650.83,239.353 650.83,238.58C650.83,237.807 650.97,237.107 651.25,236.48C651.53,235.853 651.913,235.317 652.4,234.87C652.887,234.423 653.46,234.08 654.12,233.84C654.78,233.6 655.483,233.48 656.23,233.48C656.803,233.48 657.407,233.577 658.04,233.77C658.673,233.963 659.223,234.3 659.69,234.78L657.71,236.86ZM695.35,242.22L695.31,242.22C694.977,242.74 694.533,243.113 693.98,243.34C693.427,243.567 692.843,243.68 692.23,243.68C691.777,243.68 691.34,243.617 690.92,243.49C690.5,243.363 690.13,243.173 689.81,242.92C689.49,242.667 689.237,242.353 689.05,241.98C688.863,241.607 688.77,241.173 688.77,240.68C688.77,240.12 688.873,239.647 689.08,239.26C689.287,238.873 689.567,238.553 689.92,238.3C690.273,238.047 690.677,237.85 691.13,237.71C691.583,237.57 692.053,237.467 692.54,237.4C693.027,237.333 693.513,237.293 694,237.28C694.487,237.267 694.937,237.26 695.35,237.26C695.35,236.727 695.16,236.303 694.78,235.99C694.4,235.677 693.95,235.52 693.43,235.52C692.937,235.52 692.487,235.623 692.08,235.83C691.673,236.037 691.31,236.32 690.99,236.68L689.39,235.04C689.95,234.52 690.603,234.13 691.35,233.87C692.097,233.61 692.87,233.48 693.67,233.48C694.55,233.48 695.273,233.59 695.84,233.81C696.407,234.03 696.86,234.353 697.2,234.78C697.54,235.207 697.777,235.73 697.91,236.35C698.043,236.97 698.11,237.687 698.11,238.5L698.11,243.44L695.35,243.44L695.35,242.22ZM667.39,236.12L664.75,236.12L664.75,239.36C664.75,239.627 664.763,239.87 664.79,240.09C664.817,240.31 664.877,240.5 664.97,240.66C665.063,240.82 665.207,240.943 665.4,241.03C665.593,241.117 665.85,241.16 666.17,241.16C666.33,241.16 666.54,241.143 666.8,241.11C667.06,241.077 667.257,241 667.39,240.88L667.39,243.38C667.057,243.5 666.71,243.58 666.35,243.62C665.99,243.66 665.637,243.68 665.29,243.68C664.783,243.68 664.317,243.627 663.89,243.52C663.463,243.413 663.09,243.243 662.77,243.01C662.45,242.777 662.2,242.473 662.02,242.1C661.84,241.727 661.75,241.273 661.75,240.74L661.75,236.12L659.83,236.12L659.83,233.72L661.75,233.72L661.75,230.84L664.75,230.84L664.75,233.72L667.39,233.72L667.39,236.12ZM648.85,241.76C648.37,242.373 647.763,242.847 647.03,243.18C646.297,243.513 645.537,243.68 644.75,243.68C644.003,243.68 643.3,243.56 642.64,243.32C641.98,243.08 641.407,242.737 640.92,242.29C640.433,241.843 640.05,241.307 639.77,240.68C639.49,240.053 639.35,239.353 639.35,238.58C639.35,237.807 639.49,237.107 639.77,236.48C640.05,235.853 640.433,235.317 640.92,234.87C641.407,234.423 641.98,234.08 642.64,233.84C643.3,233.6 644.003,233.48 644.75,233.48C645.443,233.48 646.073,233.6 646.64,233.84C647.207,234.08 647.687,234.423 648.08,234.87C648.473,235.317 648.777,235.853 648.99,236.48C649.203,237.107 649.31,237.807 649.31,238.58L649.31,239.52L642.35,239.52C642.47,240.093 642.73,240.55 643.13,240.89C643.53,241.23 644.023,241.4 644.61,241.4C645.103,241.4 645.52,241.29 645.86,241.07C646.2,240.85 646.497,240.567 646.75,240.22L648.85,241.76ZM668.55,238.58C668.55,237.807 668.69,237.107 668.97,236.48C669.25,235.853 669.633,235.317 670.12,234.87C670.607,234.423 671.18,234.08 671.84,233.84C672.5,233.6 673.203,233.48 673.95,233.48C674.697,233.48 675.4,233.6 676.06,233.84C676.72,234.08 677.293,234.423 677.78,234.87C678.267,235.317 678.65,235.853 678.93,236.48C679.21,237.107 679.35,237.807 679.35,238.58C679.35,239.353 679.21,240.053 678.93,240.68C678.65,241.307 678.267,241.843 677.78,242.29C677.293,242.737 676.72,243.08 676.06,243.32C675.4,243.56 674.697,243.68 673.95,243.68C673.203,243.68 672.5,243.56 671.84,243.32C671.18,243.08 670.607,242.737 670.12,242.29C669.633,241.843 669.25,241.307 668.97,240.68C668.69,240.053 668.55,239.353 668.55,238.58ZM710.19,243.44L707.43,243.44L707.43,242.16L707.39,242.16C707.27,242.333 707.113,242.51 706.92,242.69C706.727,242.87 706.5,243.033 706.24,243.18C705.98,243.327 705.693,243.447 705.38,243.54C705.067,243.633 704.743,243.68 704.41,243.68C703.69,243.68 703.037,243.557 702.45,243.31C701.863,243.063 701.36,242.717 700.94,242.27C700.52,241.823 700.197,241.293 699.97,240.68C699.743,240.067 699.63,239.393 699.63,238.66C699.63,237.98 699.733,237.33 699.94,236.71C700.147,236.09 700.44,235.54 700.82,235.06C701.2,234.58 701.663,234.197 702.21,233.91C702.757,233.623 703.377,233.48 704.07,233.48C704.697,233.48 705.28,233.577 705.82,233.77C706.36,233.963 706.803,234.293 707.15,234.76L707.19,234.76L707.19,228.32L710.19,228.32L710.19,243.44ZM681.11,233.72L684.11,233.72L684.11,235.28L684.15,235.28C684.47,234.68 684.85,234.23 685.29,233.93C685.73,233.63 686.283,233.48 686.95,233.48C687.123,233.48 687.297,233.487 687.47,233.5C687.643,233.513 687.803,233.54 687.95,233.58L687.95,236.32C687.737,236.253 687.527,236.203 687.32,236.17C687.113,236.137 686.897,236.12 686.67,236.12C686.097,236.12 685.643,236.2 685.31,236.36C684.977,236.52 684.72,236.743 684.54,237.03C684.36,237.317 684.243,237.66 684.19,238.06C684.137,238.46 684.11,238.9 684.11,239.38L684.11,243.44L681.11,243.44L681.11,233.72ZM694.61,239.18C694.383,239.18 694.1,239.19 693.76,239.21C693.42,239.23 693.093,239.287 692.78,239.38C692.467,239.473 692.2,239.613 691.98,239.8C691.76,239.987 691.65,240.247 691.65,240.58C691.65,240.94 691.803,241.207 692.11,241.38C692.417,241.553 692.737,241.64 693.07,241.64C693.363,241.64 693.647,241.6 693.92,241.52C694.193,241.44 694.437,241.327 694.65,241.18C694.863,241.033 695.033,240.847 695.16,240.62C695.287,240.393 695.35,240.127 695.35,239.82L695.35,239.18L694.61,239.18ZM671.55,238.58C671.55,239.313 671.76,239.907 672.18,240.36C672.6,240.813 673.19,241.04 673.95,241.04C674.71,241.04 675.3,240.813 675.72,240.36C676.14,239.907 676.35,239.313 676.35,238.58C676.35,237.847 676.14,237.253 675.72,236.8C675.3,236.347 674.71,236.12 673.95,236.12C673.19,236.12 672.6,236.347 672.18,236.8C671.76,237.253 671.55,237.847 671.55,238.58ZM707.43,238.58C707.43,237.847 707.22,237.253 706.8,236.8C706.38,236.347 705.79,236.12 705.03,236.12C704.27,236.12 703.68,236.347 703.26,236.8C702.84,237.253 702.63,237.847 702.63,238.58C702.63,239.313 702.84,239.907 703.26,240.36C703.68,240.813 704.27,241.04 705.03,241.04C705.79,241.04 706.38,240.813 706.8,240.36C707.22,239.907 707.43,239.313 707.43,238.58ZM646.31,237.48C646.323,236.973 646.157,236.54 645.81,236.18C645.463,235.82 645.017,235.64 644.47,235.64C644.137,235.64 643.843,235.693 643.59,235.8C643.337,235.907 643.12,236.043 642.94,236.21C642.76,236.377 642.62,236.57 642.52,236.79C642.42,237.01 642.363,237.24 642.35,237.48L646.31,237.48Z"/>
        </g>
    </g>
    <g transform="matrix(1,0,0,1,106.266,-30.2369)">
        <text x="76.358px" y="69.351px" style="font-family:'AvenirNext-Bold', 'Avenir Next', sans-serif;font-weight:700;font-size:16px;">P<tspan x="85.91px 95.734px " y="69.351px 69.351px ">ub</tspan>lic K<tspan x="138.726px 148.262px " y="69.351px 69.351px ">ey</tspan></text>
    </g>
    <g transform="matrix(1,0,0,1,105.162,113.685)">
        <text x="76.358px" y="69.351px" style="font-family:'AvenirNext-Bold', 'Avenir Next', sans-serif;font-weight:700;font-size:16px;">Secr<tspan x="109.446px 118.982px " y="69.351px 69.351px ">et</tspan> K<tspan x="139.83px 149.366px " y="69.351px 69.351px ">ey</tspan></text>
    </g>
    <g transform="matrix(0.171875,0,0,0.171875,628,13.4789)">
        <path d="M192,368.004C192,359.16 199.156,352.004 208,352.004C216.844,352.004 224,359.16 224,368.004C224,376.848 216.844,384.004 208,384.004C199.156,384.004 192,376.848 192,368.004ZM349.328,494.16C345.062,495.379 340.656,496.254 336,496.254C309.484,496.254 288,474.77 288,448.254L288,390.066C288,369.972 300.898,352.91 318.797,346.628C353.164,335.082 384,306.082 384,272.004L384,240C384,224.836 377.812,210.715 368,198.633L368,162.5C368,144.832 353.672,138.781 336,149.004L311.484,163.18C303.633,161.145 295.703,160 288,160L224,160C216.301,160 208.367,161.145 200.516,163.18L176,149.004C158.332,138.781 144,144.832 144,162.5L144,198.633C134.188,210.715 128,224.836 128,240L128,272.004C128,295.285 142.488,316.192 162.578,330.816L162.558,330.847C166.73,333.706 169.503,338.535 169.503,344.003C169.503,352.831 162.327,360.003 153.503,360.003C148.983,360.003 144.929,358.112 142.023,355.097C115.004,334.629 96,305.035 96,272.004L96,240C96,221.477 102.012,204.023 112,188.625L112,140.992C112,105.656 140.645,93.554 176,113.996L203.461,129.883C210.309,128.719 217.172,128 224,128L288,128C294.828,128 301.688,128.719 308.539,129.883L336,113.996C371.359,93.555 400,105.656 400,140.992L400,188.625C409.984,204.023 416,221.477 416,240L416,272.004C416,319.613 376.75,360.145 330.469,376.363C330.414,376.41 330.36,376.535 330.281,376.551C324.265,378.863 320,384.676 320,391.504L320,448.254C320,457.098 327.156,464.254 336,464.254C337.336,464.254 338.562,463.879 339.797,463.566C421.969,430.41 480,350.066 480,256C480,132.285 379.719,32 256,32C132.285,32 32,132.285 32,256C32,353.41 94.254,436.066 181.121,466.895C181.566,466.942 181.973,467.129 182.437,467.129C187.714,467.129 191.999,462.832 191.999,457.567C191.999,452.286 187.714,448.005 182.437,448.005C182.324,448.005 182.324,447.911 182.246,447.864C129.086,446.442 129.027,384.005 112,384.005C103.156,384.005 96,376.849 96,368.005C96,359.161 103.156,352.005 112,352.005L119.988,352.005C152.008,352.005 147.433,416.005 192,416.005C209.668,416.005 224,430.333 224,448.005L224,476.005C224,491.458 211.473,504.005 195.996,504.005C194.308,504.005 192.719,503.661 191.109,503.349C81.203,474.613 0,374.926 0,256C0,114.617 114.617,0 256,0C397.383,0 512,114.617 512,256C512,364.41 444.508,456.848 349.328,494.16Z" style="fill:rgb(23,21,21);"/>
    </g>
    <g transform="matrix(1,0,0,1,-3,0)">
        <g transform="matrix(1,0,0,1,-7.9075,26.845)">
            <text x="426.104px" y="183.249px" style="font-family:'AvenirNext-Bold', 'Avenir Next', sans-serif;font-weight:700;font-size:14px;">AuthorizedK<tspan x="511.546px 519.89px " y="183.249px 183.249px ">ey</tspan>sC<tspan x="544.012px " y="183.249px ">o</tspan>mmand</text>
        </g>
        <g transform="matrix(1,0,0,1,95.3885,46.9965)">
            <text x="426.104px" y="183.249px" style="font-family:'AvenirNext-Bold', 'Avenir Next', sans-serif;font-weight:700;font-size:14px;">sector<tspan x="467.474px 475.398px 478.898px 486.976px 495.32px " y="183.249px 183.249px 183.249px 183.249px 183.249px ">a key</tspan></text>
        </g>
        <path d="M489.652,211.091L601.41,211.091L601.41,201.364L616,215.954L601.41,230.544L601.41,220.817L508.384,220.817L510.806,214.594L508.37,214.594L506.984,219.074L506.942,219.074L505.388,214.594L502.84,214.594L505.482,220.817L501.621,220.817C501.783,220.664 501.927,220.494 502.056,220.306L500.46,219.298C500.301,219.513 500.096,219.688 499.844,219.823C499.592,219.959 499.284,220.026 498.92,220.026C498.715,220.026 498.516,219.994 498.325,219.928C498.134,219.863 497.961,219.772 497.807,219.655C497.653,219.539 497.527,219.401 497.429,219.242C497.331,219.084 497.273,218.906 497.254,218.71L502.308,218.71C502.317,218.626 502.322,218.538 502.322,218.444L502.322,218.164C502.322,217.567 502.236,217.035 502.063,216.568C501.89,216.102 501.65,215.705 501.342,215.378C501.034,215.052 500.665,214.802 500.236,214.629C499.807,214.457 499.335,214.37 498.822,214.37C498.29,214.37 497.795,214.459 497.338,214.636C496.881,214.814 496.484,215.063 496.148,215.385C495.812,215.707 495.546,216.099 495.35,216.561C495.154,217.023 495.056,217.539 495.056,218.108C495.056,218.696 495.156,219.219 495.357,219.676C495.555,220.127 495.825,220.507 496.168,220.817L494.269,220.817L492.018,217.744L494.706,214.594L491.92,214.594L489.694,217.422L489.652,217.422L489.652,211.091ZM491.465,220.817L489.652,220.817L489.652,218.22L489.694,218.22L491.465,220.817ZM469.17,211.091L487.342,211.091L487.342,220.817L481.699,220.817C481.861,220.664 482.005,220.494 482.134,220.306L480.538,219.298C480.379,219.513 480.174,219.688 479.922,219.823C479.67,219.959 479.362,220.026 478.998,220.026C478.793,220.026 478.594,219.994 478.403,219.928C478.212,219.863 478.039,219.772 477.885,219.655C477.731,219.539 477.605,219.401 477.507,219.242C477.409,219.084 477.351,218.906 477.332,218.71L482.386,218.71C482.395,218.626 482.4,218.538 482.4,218.444L482.4,218.164C482.4,217.567 482.314,217.035 482.141,216.568C481.968,216.102 481.728,215.705 481.42,215.378C481.112,215.052 480.743,214.802 480.314,214.629C479.885,214.457 479.413,214.37 478.9,214.37C478.368,214.37 477.873,214.459 477.416,214.636C476.959,214.814 476.562,215.063 476.226,215.385C475.89,215.707 475.624,216.099 475.428,216.561C475.232,217.023 475.134,217.539 475.134,218.108C475.134,218.696 475.234,219.219 475.435,219.676C475.633,220.127 475.903,220.507 476.246,220.817L473.748,220.817L473.748,217.254C473.748,216.909 473.704,216.564 473.615,216.218C473.526,215.873 473.382,215.567 473.181,215.301C472.98,215.035 472.719,214.818 472.397,214.65C472.075,214.482 471.676,214.398 471.2,214.398C470.715,214.398 470.299,214.508 469.954,214.727C469.609,214.947 469.357,215.196 469.198,215.476L469.17,215.476L469.17,211.091ZM469.17,220.817L469.17,217.8C469.17,217.38 469.277,217.028 469.492,216.743C469.707,216.459 470.015,216.316 470.416,216.316C470.621,216.316 470.789,216.356 470.92,216.435C471.051,216.515 471.156,216.622 471.235,216.757C471.314,216.893 471.368,217.049 471.396,217.226C471.424,217.404 471.438,217.59 471.438,217.786L471.438,220.817L469.17,220.817ZM452.132,211.091L466.874,211.091L466.874,220.817L465.686,220.817L465.67,219.844C465.586,219.882 465.481,219.91 465.355,219.928C465.229,219.947 465.11,219.956 464.998,219.956C464.671,219.956 464.445,219.875 464.319,219.711C464.193,219.548 464.13,219.303 464.13,218.976L464.13,216.316L465.768,216.316L465.768,214.594L464.13,214.594L464.13,212.76L461.876,212.76L461.876,214.594L460.77,214.594L460.77,216.316L461.89,216.316L461.89,219.256C461.89,219.63 461.932,219.968 462.016,220.271C462.071,220.472 462.15,220.654 462.253,220.817L456.749,220.817L454.498,217.744L457.186,214.594L454.4,214.594L452.174,217.422L452.132,217.422L452.132,211.091ZM453.945,220.817L452.132,220.817L452.132,218.22L452.174,218.22L453.945,220.817ZM428.108,211.091L449.822,211.091L449.822,220.817L448.835,220.817L447.624,219.34C447.484,219.508 447.3,219.637 447.071,219.725C446.842,219.814 446.611,219.858 446.378,219.858C446.126,219.858 445.9,219.812 445.699,219.718C445.498,219.625 445.326,219.497 445.181,219.333C445.036,219.17 444.927,218.981 444.852,218.766C444.777,218.552 444.74,218.323 444.74,218.08C444.74,217.838 444.78,217.609 444.859,217.394C444.938,217.18 445.048,216.991 445.188,216.827C445.328,216.664 445.496,216.533 445.692,216.435C445.888,216.337 446.107,216.288 446.35,216.288C446.583,216.288 446.812,216.34 447.036,216.442C447.26,216.545 447.437,216.68 447.568,216.848L448.898,215.308C448.758,215.168 448.592,215.04 448.401,214.923C448.21,214.807 448,214.709 447.771,214.629C447.542,214.55 447.304,214.487 447.057,214.44C446.81,214.394 446.56,214.37 446.308,214.37C445.767,214.37 445.258,214.457 444.782,214.629C444.306,214.802 443.893,215.049 443.543,215.371C443.193,215.693 442.918,216.083 442.717,216.54C442.516,216.998 442.416,217.511 442.416,218.08C442.416,218.659 442.516,219.177 442.717,219.634C442.918,220.092 443.193,220.481 443.543,220.803L443.559,220.817L440.637,220.817C440.799,220.664 440.943,220.494 441.072,220.306L439.476,219.298C439.317,219.513 439.112,219.688 438.86,219.823C438.608,219.959 438.3,220.026 437.936,220.026C437.731,220.026 437.532,219.994 437.341,219.928C437.15,219.863 436.977,219.772 436.823,219.655C436.669,219.539 436.543,219.401 436.445,219.242C436.347,219.084 436.289,218.906 436.27,218.71L441.324,218.71C441.333,218.626 441.338,218.538 441.338,218.444L441.338,218.164C441.338,217.567 441.252,217.035 441.079,216.568C440.906,216.102 440.666,215.705 440.358,215.378C440.05,215.052 439.681,214.802 439.252,214.629C438.823,214.457 438.351,214.37 437.838,214.37C437.306,214.37 436.811,214.459 436.354,214.636C435.897,214.814 435.5,215.063 435.164,215.385C434.828,215.707 434.562,216.099 434.366,216.561C434.17,217.023 434.072,217.539 434.072,218.108C434.072,218.696 434.172,219.219 434.373,219.676C434.571,220.127 434.841,220.507 435.184,220.817L432.686,220.817L432.686,217.254C432.686,216.909 432.642,216.564 432.553,216.218C432.464,215.873 432.32,215.567 432.119,215.301C431.918,215.035 431.657,214.818 431.335,214.65C431.013,214.482 430.614,214.398 430.138,214.398C429.653,214.398 429.237,214.508 428.892,214.727C428.547,214.947 428.295,215.196 428.136,215.476L428.108,215.476L428.108,211.091ZM428.108,220.817L428.108,217.8C428.108,217.38 428.215,217.028 428.43,216.743C428.645,216.459 428.953,216.316 429.354,216.316C429.559,216.316 429.727,216.356 429.858,216.435C429.989,216.515 430.094,216.622 430.173,216.757C430.252,216.893 430.306,217.049 430.334,217.226C430.362,217.404 430.376,217.59 430.376,217.786L430.376,220.817L428.108,220.817ZM425.812,211.091L425.812,220.817L424.811,220.817L423.6,219.34C423.46,219.508 423.276,219.637 423.047,219.725C422.818,219.814 422.587,219.858 422.354,219.858C422.102,219.858 421.876,219.812 421.675,219.718C421.474,219.625 421.302,219.497 421.157,219.333C421.012,219.17 420.903,218.981 420.828,218.766C420.753,218.552 420.716,218.323 420.716,218.08C420.716,217.838 420.756,217.609 420.835,217.394C420.914,217.18 421.024,216.991 421.164,216.827C421.304,216.664 421.472,216.533 421.668,216.435C421.864,216.337 422.083,216.288 422.326,216.288C422.559,216.288 422.788,216.34 423.012,216.442C423.236,216.545 423.413,216.68 423.544,216.848L424.874,215.308C424.734,215.168 424.568,215.04 424.377,214.923C424.186,214.807 423.976,214.709 423.747,214.629C423.518,214.55 423.28,214.487 423.033,214.44C422.786,214.394 422.536,214.37 422.284,214.37C421.743,214.37 421.234,214.457 420.758,214.629C420.282,214.802 419.869,215.049 419.519,215.371C419.169,215.693 418.894,216.083 418.693,216.54C418.492,216.998 418.392,217.511 418.392,218.08C418.392,218.659 418.492,219.177 418.693,219.634C418.894,220.092 419.169,220.481 419.519,220.803L419.535,220.817L418,220.817L418,211.091L425.812,211.091ZM500.208,217.282C500.208,216.918 500.094,216.606 499.865,216.344C499.636,216.083 499.293,215.952 498.836,215.952C498.612,215.952 498.407,215.987 498.22,216.057C498.033,216.127 497.87,216.223 497.73,216.344C497.59,216.466 497.478,216.608 497.394,216.771C497.31,216.935 497.263,217.105 497.254,217.282L500.208,217.282ZM480.286,217.282C480.286,216.918 480.172,216.606 479.943,216.344C479.714,216.083 479.371,215.952 478.914,215.952C478.69,215.952 478.485,215.987 478.298,216.057C478.111,216.127 477.948,216.223 477.808,216.344C477.668,216.466 477.556,216.608 477.472,216.771C477.388,216.935 477.341,217.105 477.332,217.282L480.286,217.282ZM439.224,217.282C439.224,216.918 439.11,216.606 438.881,216.344C438.652,216.083 438.309,215.952 437.852,215.952C437.628,215.952 437.423,215.987 437.236,216.057C437.049,216.127 436.886,216.223 436.746,216.344C436.606,216.466 436.494,216.608 436.41,216.771C436.326,216.935 436.279,217.105 436.27,217.282L439.224,217.282Z"/>
    </g>
    <g transform="matrix(1,0,0,1,-3,0)">
        <path d="M552.596,252.21L601.41,252.21L601.41,242.484L616,257.073L601.41,271.663L601.41,261.937L596.576,261.937C596.855,261.751 597.081,261.509 597.256,261.21C597.433,260.907 597.522,260.536 597.522,260.097C597.522,259.761 597.457,259.472 597.326,259.229C597.195,258.987 597.023,258.781 596.808,258.613C596.593,258.445 596.353,258.31 596.087,258.207C595.821,258.105 595.557,258.025 595.296,257.969C594.848,257.867 594.524,257.773 594.323,257.689C594.122,257.605 594.022,257.465 594.022,257.269C594.022,257.064 594.113,256.919 594.295,256.835C594.477,256.751 594.675,256.709 594.89,256.709C595.17,256.709 595.436,256.77 595.688,256.891C595.94,257.013 596.159,257.162 596.346,257.339L597.606,256.037C597.261,255.711 596.838,255.466 596.339,255.302C595.84,255.139 595.329,255.057 594.806,255.057C594.47,255.057 594.132,255.102 593.791,255.19C593.45,255.279 593.14,255.417 592.86,255.603C592.58,255.79 592.351,256.03 592.174,256.324C591.997,256.618 591.908,256.975 591.908,257.395C591.908,257.722 591.969,258.002 592.09,258.235C592.211,258.469 592.368,258.665 592.559,258.823C592.75,258.982 592.967,259.108 593.21,259.201C593.453,259.295 593.695,259.369 593.938,259.425C594.414,259.537 594.764,259.645 594.988,259.747C595.212,259.85 595.324,260.009 595.324,260.223C595.324,260.447 595.233,260.604 595.051,260.692C594.869,260.781 594.685,260.825 594.498,260.825C594.162,260.825 593.845,260.751 593.546,260.601C593.247,260.452 592.995,260.265 592.79,260.041L591.502,261.399C591.717,261.608 591.963,261.788 592.241,261.937L590.508,261.937L590.508,257.941C590.508,257.615 590.464,257.281 590.375,256.94C590.286,256.6 590.144,256.292 589.948,256.016C589.752,255.741 589.493,255.517 589.171,255.344C588.849,255.172 588.45,255.085 587.974,255.085C587.451,255.085 587.008,255.193 586.644,255.407C586.28,255.622 585.981,255.911 585.748,256.275C585.552,255.893 585.279,255.599 584.929,255.393C584.579,255.188 584.152,255.085 583.648,255.085C583.387,255.085 583.146,255.118 582.927,255.183C582.708,255.249 582.509,255.335 582.332,255.442C582.155,255.55 582.003,255.673 581.877,255.813C581.751,255.953 581.646,256.098 581.562,256.247L581.534,256.247L581.534,255.281L579.308,255.281L579.308,261.937L577.6,261.937L577.6,258.739C577.6,258.105 577.542,257.556 577.425,257.094C577.308,256.632 577.124,256.25 576.872,255.946C576.62,255.643 576.291,255.419 575.885,255.274C575.479,255.13 574.982,255.057 574.394,255.057C573.825,255.057 573.267,255.155 572.721,255.351C572.175,255.547 571.697,255.841 571.286,256.233L572.448,257.479C572.663,257.283 572.922,257.115 573.225,256.975C573.528,256.835 573.843,256.765 574.17,256.765C574.525,256.765 574.823,256.847 575.066,257.01C575.309,257.174 575.43,257.428 575.43,257.773L575.43,257.885C574.926,257.885 574.408,257.913 573.876,257.969C573.344,258.025 572.861,258.137 572.427,258.305C571.993,258.473 571.638,258.711 571.363,259.019C571.088,259.327 570.95,259.733 570.95,260.237C570.95,260.648 571.029,260.993 571.188,261.273C571.344,261.549 571.543,261.77 571.784,261.937L568.769,261.937C569.174,261.695 569.509,261.38 569.774,260.993L568.178,259.985C568.019,260.2 567.814,260.375 567.562,260.51C567.31,260.646 567.002,260.713 566.638,260.713C566.433,260.713 566.234,260.681 566.043,260.615C565.852,260.55 565.679,260.459 565.525,260.342C565.371,260.226 565.245,260.088 565.147,259.929C565.049,259.771 564.991,259.593 564.972,259.397L570.026,259.397C570.035,259.313 570.04,259.225 570.04,259.131L570.04,258.851C570.04,258.254 569.954,257.722 569.781,257.255C569.608,256.789 569.368,256.392 569.06,256.065C568.752,255.739 568.383,255.489 567.954,255.316C567.525,255.144 567.053,255.057 566.54,255.057C566.008,255.057 565.513,255.146 565.056,255.323C564.599,255.501 564.202,255.75 563.866,256.072C563.53,256.394 563.264,256.786 563.068,257.248C562.872,257.71 562.774,258.226 562.774,258.795C562.774,259.383 562.874,259.906 563.075,260.363C563.276,260.821 563.551,261.206 563.901,261.518C564.079,261.677 564.271,261.816 564.479,261.937L561.971,261.937L561.948,260.531C561.864,260.569 561.759,260.597 561.633,260.615C561.507,260.634 561.388,260.643 561.276,260.643C560.949,260.643 560.723,260.562 560.597,260.398C560.471,260.235 560.408,259.99 560.408,259.663L560.408,257.003L562.046,257.003L562.046,255.281L560.408,255.281L560.408,253.447L558.154,253.447L558.154,255.281L557.048,255.281L557.048,257.003L558.168,257.003L558.168,259.943C558.168,260.317 558.21,260.655 558.294,260.958C558.378,261.262 558.516,261.523 558.707,261.742C558.768,261.812 558.836,261.877 558.909,261.937L552.596,261.937L552.596,252.21ZM586.056,261.937L586.056,258.487C586.056,258.291 586.079,258.102 586.126,257.92C586.173,257.738 586.245,257.577 586.343,257.437C586.441,257.297 586.562,257.185 586.707,257.101C586.852,257.017 587.022,256.975 587.218,256.975C587.423,256.975 587.589,257.015 587.715,257.094C587.841,257.174 587.941,257.279 588.016,257.409C588.091,257.54 588.142,257.696 588.17,257.878C588.198,258.06 588.212,258.249 588.212,258.445L588.212,261.937L586.056,261.937ZM581.618,261.937L581.618,258.473C581.618,258.053 581.718,257.699 581.919,257.409C582.12,257.12 582.402,256.975 582.766,256.975C583.111,256.975 583.363,257.092 583.522,257.325C583.681,257.559 583.76,257.876 583.76,258.277L583.76,261.937L581.618,261.937ZM575.5,261.937L575.074,261.937C575.23,261.815 575.359,261.674 575.458,261.511L575.5,261.511L575.5,261.937ZM550.482,261.937L549.889,261.937C550.118,261.774 550.307,261.576 550.454,261.343L550.482,261.343L550.482,261.937ZM550.3,252.21L550.3,256.023L550.272,256.023C550.076,255.79 549.801,255.575 549.446,255.379C549.091,255.183 548.657,255.085 548.144,255.085C547.64,255.085 547.185,255.183 546.779,255.379C546.373,255.575 546.028,255.841 545.743,256.177C545.458,256.513 545.239,256.903 545.085,257.346C544.931,257.79 544.854,258.254 544.854,258.739C544.854,259.225 544.929,259.691 545.078,260.139C545.227,260.587 545.444,260.982 545.729,261.322C545.928,261.56 546.157,261.765 546.417,261.937L543.468,261.937L543.468,257.941C543.468,257.596 543.424,257.251 543.335,256.905C543.246,256.56 543.102,256.254 542.901,255.988C542.7,255.722 542.437,255.505 542.11,255.337C541.783,255.169 541.387,255.085 540.92,255.085C540.677,255.085 540.449,255.118 540.234,255.183C540.019,255.249 539.821,255.333 539.639,255.435C539.457,255.538 539.298,255.662 539.163,255.806C539.028,255.951 538.918,256.098 538.834,256.247L538.806,256.247L538.806,255.281L536.58,255.281L536.58,261.937L534.872,261.937L534.872,258.739C534.872,258.105 534.814,257.556 534.697,257.094C534.58,256.632 534.396,256.25 534.144,255.946C533.892,255.643 533.563,255.419 533.157,255.274C532.751,255.13 532.254,255.057 531.666,255.057C531.097,255.057 530.539,255.155 529.993,255.351C529.447,255.547 528.969,255.841 528.558,256.233L529.72,257.479C529.935,257.283 530.194,257.115 530.497,256.975C530.8,256.835 531.115,256.765 531.442,256.765C531.797,256.765 532.095,256.847 532.338,257.01C532.581,257.174 532.702,257.428 532.702,257.773L532.702,257.885C532.198,257.885 531.68,257.913 531.148,257.969C530.616,258.025 530.133,258.137 529.699,258.305C529.265,258.473 528.91,258.711 528.635,259.019C528.36,259.327 528.222,259.733 528.222,260.237C528.222,260.648 528.301,260.993 528.46,261.273C528.616,261.549 528.815,261.77 529.056,261.937L522.457,261.937C522.862,261.695 523.197,261.38 523.462,260.993L521.866,259.985C521.707,260.2 521.502,260.375 521.25,260.51C520.998,260.646 520.69,260.713 520.326,260.713C520.121,260.713 519.922,260.681 519.731,260.615C519.54,260.55 519.367,260.459 519.213,260.342C519.059,260.226 518.933,260.088 518.835,259.929C518.737,259.771 518.679,259.593 518.66,259.397L523.714,259.397C523.723,259.313 523.728,259.225 523.728,259.131L523.728,258.851C523.728,258.254 523.642,257.722 523.469,257.255C523.296,256.789 523.056,256.392 522.748,256.065C522.44,255.739 522.071,255.489 521.642,255.316C521.213,255.144 520.741,255.057 520.228,255.057C519.696,255.057 519.201,255.146 518.744,255.323C518.287,255.501 517.89,255.75 517.554,256.072C517.218,256.394 516.952,256.786 516.756,257.248C516.56,257.71 516.462,258.226 516.462,258.795C516.462,259.383 516.562,259.906 516.763,260.363C516.964,260.821 517.239,261.206 517.589,261.518C517.767,261.677 517.959,261.816 518.167,261.937L515.076,261.937L515.076,257.941C515.076,257.615 515.032,257.281 514.943,256.94C514.854,256.6 514.712,256.292 514.516,256.016C514.32,255.741 514.061,255.517 513.739,255.344C513.417,255.172 513.018,255.085 512.542,255.085C512.019,255.085 511.576,255.193 511.212,255.407C510.848,255.622 510.549,255.911 510.316,256.275C510.12,255.893 509.847,255.599 509.497,255.393C509.147,255.188 508.72,255.085 508.216,255.085C507.955,255.085 507.714,255.118 507.495,255.183C507.276,255.249 507.077,255.335 506.9,255.442C506.723,255.55 506.571,255.673 506.445,255.813C506.319,255.953 506.214,256.098 506.13,256.247L506.102,256.247L506.102,255.281L503.876,255.281L503.876,261.937L502.168,261.937L502.168,258.739C502.168,258.105 502.11,257.556 501.993,257.094C501.876,256.632 501.692,256.25 501.44,255.946C501.188,255.643 500.859,255.419 500.453,255.274C500.047,255.13 499.55,255.057 498.962,255.057C498.393,255.057 497.835,255.155 497.289,255.351C496.743,255.547 496.265,255.841 495.854,256.233L497.016,257.479C497.231,257.283 497.49,257.115 497.793,256.975C498.096,256.835 498.411,256.765 498.738,256.765C499.093,256.765 499.391,256.847 499.634,257.01C499.877,257.174 499.998,257.428 499.998,257.773L499.998,257.885C499.494,257.885 498.976,257.913 498.444,257.969C497.912,258.025 497.429,258.137 496.995,258.305C496.561,258.473 496.206,258.711 495.931,259.019C495.656,259.327 495.518,259.733 495.518,260.237C495.518,260.648 495.597,260.993 495.756,261.273C495.912,261.549 496.111,261.77 496.352,261.937L494.216,261.937L494.216,257.941C494.216,257.596 494.172,257.251 494.083,256.905C493.994,256.56 493.85,256.254 493.649,255.988C493.448,255.722 493.185,255.505 492.858,255.337C492.531,255.169 492.135,255.085 491.668,255.085C491.425,255.085 491.197,255.118 490.982,255.183C490.767,255.249 490.569,255.333 490.387,255.435C490.205,255.538 490.046,255.662 489.911,255.806C489.776,255.951 489.666,256.098 489.582,256.247L489.554,256.247L489.554,255.281L487.328,255.281L487.328,261.937L481.129,261.937C481.534,261.695 481.869,261.38 482.134,260.993L480.538,259.985C480.379,260.2 480.174,260.375 479.922,260.51C479.67,260.646 479.362,260.713 478.998,260.713C478.793,260.713 478.594,260.681 478.403,260.615C478.212,260.55 478.039,260.459 477.885,260.342C477.731,260.226 477.605,260.088 477.507,259.929C477.409,259.771 477.351,259.593 477.332,259.397L482.386,259.397C482.395,259.313 482.4,259.225 482.4,259.131L482.4,258.851C482.4,258.254 482.314,257.722 482.141,257.255C481.968,256.789 481.728,256.392 481.42,256.065C481.112,255.739 480.743,255.489 480.314,255.316C479.885,255.144 479.413,255.057 478.9,255.057C478.368,255.057 477.873,255.146 477.416,255.323C476.959,255.501 476.562,255.75 476.226,256.072C475.89,256.394 475.624,256.786 475.428,257.248C475.232,257.71 475.134,258.226 475.134,258.795C475.134,259.383 475.234,259.906 475.435,260.363C475.636,260.821 475.911,261.206 476.261,261.518C476.439,261.677 476.631,261.816 476.839,261.937L473.748,261.937L473.748,257.941C473.748,257.596 473.704,257.251 473.615,256.905C473.526,256.56 473.382,256.254 473.181,255.988C472.98,255.722 472.719,255.505 472.397,255.337C472.075,255.169 471.676,255.085 471.2,255.085C470.715,255.085 470.299,255.195 469.954,255.414C469.609,255.634 469.357,255.883 469.198,256.163L469.17,256.163L469.17,252.21L550.3,252.21ZM538.89,261.937L538.89,258.473C538.89,258.277 538.916,258.088 538.967,257.906C539.018,257.724 539.095,257.563 539.198,257.423C539.301,257.283 539.429,257.174 539.583,257.094C539.737,257.015 539.917,256.975 540.122,256.975C540.327,256.975 540.498,257.015 540.633,257.094C540.768,257.174 540.873,257.281 540.948,257.416C541.023,257.552 541.076,257.708 541.109,257.885C541.142,258.063 541.158,258.249 541.158,258.445L541.158,261.937L538.89,261.937ZM532.772,261.937L532.346,261.937C532.502,261.815 532.631,261.674 532.73,261.511L532.772,261.511L532.772,261.937ZM510.624,261.937L510.624,258.487C510.624,258.291 510.647,258.102 510.694,257.92C510.741,257.738 510.813,257.577 510.911,257.437C511.009,257.297 511.13,257.185 511.275,257.101C511.42,257.017 511.59,256.975 511.786,256.975C511.991,256.975 512.157,257.015 512.283,257.094C512.409,257.174 512.509,257.279 512.584,257.409C512.659,257.54 512.71,257.696 512.738,257.878C512.766,258.06 512.78,258.249 512.78,258.445L512.78,261.937L510.624,261.937ZM506.186,261.937L506.186,258.473C506.186,258.053 506.286,257.699 506.487,257.409C506.688,257.12 506.97,256.975 507.334,256.975C507.679,256.975 507.931,257.092 508.09,257.325C508.249,257.559 508.328,257.876 508.328,258.277L508.328,261.937L506.186,261.937ZM500.068,261.937L499.642,261.937C499.798,261.815 499.927,261.674 500.026,261.511L500.068,261.511L500.068,261.937ZM489.638,261.937L489.638,258.473C489.638,258.277 489.664,258.088 489.715,257.906C489.766,257.724 489.843,257.563 489.946,257.423C490.049,257.283 490.177,257.174 490.331,257.094C490.485,257.015 490.665,256.975 490.87,256.975C491.075,256.975 491.246,257.015 491.381,257.094C491.516,257.174 491.621,257.281 491.696,257.416C491.771,257.552 491.824,257.708 491.857,257.885C491.89,258.063 491.906,258.249 491.906,258.445L491.906,261.937L489.638,261.937ZM469.17,261.937L469.17,258.487C469.17,258.067 469.277,257.715 469.492,257.43C469.707,257.146 470.015,257.003 470.416,257.003C470.621,257.003 470.789,257.043 470.92,257.122C471.051,257.202 471.156,257.309 471.235,257.444C471.314,257.58 471.368,257.736 471.396,257.913C471.424,258.091 471.438,258.277 471.438,258.473L471.438,261.937L469.17,261.937ZM452.132,252.21L466.874,252.21L466.874,261.937L465.693,261.937L465.67,260.531C465.586,260.569 465.481,260.597 465.355,260.615C465.229,260.634 465.11,260.643 464.998,260.643C464.671,260.643 464.445,260.562 464.319,260.398C464.193,260.235 464.13,259.99 464.13,259.663L464.13,257.003L465.768,257.003L465.768,255.281L464.13,255.281L464.13,253.447L461.876,253.447L461.876,255.281L460.77,255.281L460.77,257.003L461.89,257.003L461.89,259.943C461.89,260.317 461.932,260.655 462.016,260.958C462.1,261.262 462.238,261.523 462.429,261.742C462.49,261.812 462.558,261.877 462.631,261.937L457.066,261.937L454.498,258.431L457.186,255.281L454.4,255.281L452.174,258.109L452.132,258.109L452.132,252.21ZM454.24,261.937L452.132,261.937L452.132,258.907L452.174,258.907L454.24,261.937ZM428.108,252.21L449.822,252.21L449.822,261.937L448.433,261.937C448.607,261.832 448.762,261.713 448.898,261.581L447.624,260.027C447.484,260.195 447.3,260.324 447.071,260.412C446.842,260.501 446.611,260.545 446.378,260.545C446.126,260.545 445.9,260.499 445.699,260.405C445.498,260.312 445.326,260.184 445.181,260.02C445.036,259.857 444.927,259.668 444.852,259.453C444.777,259.239 444.74,259.01 444.74,258.767C444.74,258.525 444.78,258.296 444.859,258.081C444.938,257.867 445.048,257.678 445.188,257.514C445.328,257.351 445.496,257.22 445.692,257.122C445.888,257.024 446.107,256.975 446.35,256.975C446.583,256.975 446.812,257.027 447.036,257.129C447.26,257.232 447.437,257.367 447.568,257.535L448.898,255.995C448.758,255.855 448.592,255.727 448.401,255.61C448.21,255.494 448,255.396 447.771,255.316C447.542,255.237 447.304,255.174 447.057,255.127C446.81,255.081 446.56,255.057 446.308,255.057C445.767,255.057 445.258,255.144 444.782,255.316C444.306,255.489 443.893,255.736 443.543,256.058C443.193,256.38 442.918,256.77 442.717,257.227C442.516,257.685 442.416,258.198 442.416,258.767C442.416,259.346 442.516,259.864 442.717,260.321C442.918,260.779 443.193,261.168 443.543,261.49C443.728,261.661 443.931,261.809 444.151,261.937L440.067,261.937C440.472,261.695 440.807,261.38 441.072,260.993L439.476,259.985C439.317,260.2 439.112,260.375 438.86,260.51C438.608,260.646 438.3,260.713 437.936,260.713C437.731,260.713 437.532,260.681 437.341,260.615C437.15,260.55 436.977,260.459 436.823,260.342C436.669,260.226 436.543,260.088 436.445,259.929C436.347,259.771 436.289,259.593 436.27,259.397L441.324,259.397C441.333,259.313 441.338,259.225 441.338,259.131L441.338,258.851C441.338,258.254 441.252,257.722 441.079,257.255C440.906,256.789 440.666,256.392 440.358,256.065C440.05,255.739 439.681,255.489 439.252,255.316C438.823,255.144 438.351,255.057 437.838,255.057C437.306,255.057 436.811,255.146 436.354,255.323C435.897,255.501 435.5,255.75 435.164,256.072C434.828,256.394 434.562,256.786 434.366,257.248C434.17,257.71 434.072,258.226 434.072,258.795C434.072,259.383 434.172,259.906 434.373,260.363C434.574,260.821 434.849,261.206 435.199,261.518C435.377,261.677 435.569,261.816 435.777,261.937L432.686,261.937L432.686,257.941C432.686,257.596 432.642,257.251 432.553,256.905C432.464,256.56 432.32,256.254 432.119,255.988C431.918,255.722 431.657,255.505 431.335,255.337C431.013,255.169 430.614,255.085 430.138,255.085C429.653,255.085 429.237,255.195 428.892,255.414C428.547,255.634 428.295,255.883 428.136,256.163L428.108,256.163L428.108,252.21ZM428.108,261.937L428.108,258.487C428.108,258.067 428.215,257.715 428.43,257.43C428.645,257.146 428.953,257.003 429.354,257.003C429.559,257.003 429.727,257.043 429.858,257.122C429.989,257.202 430.094,257.309 430.173,257.444C430.252,257.58 430.306,257.736 430.334,257.913C430.362,258.091 430.376,258.277 430.376,258.473L430.376,261.937L428.108,261.937ZM425.812,252.21L425.812,261.937L424.409,261.937C424.583,261.832 424.738,261.713 424.874,261.581L423.6,260.027C423.46,260.195 423.276,260.324 423.047,260.412C422.818,260.501 422.587,260.545 422.354,260.545C422.102,260.545 421.876,260.499 421.675,260.405C421.474,260.312 421.302,260.184 421.157,260.02C421.012,259.857 420.903,259.668 420.828,259.453C420.753,259.239 420.716,259.01 420.716,258.767C420.716,258.525 420.756,258.296 420.835,258.081C420.914,257.867 421.024,257.678 421.164,257.514C421.304,257.351 421.472,257.22 421.668,257.122C421.864,257.024 422.083,256.975 422.326,256.975C422.559,256.975 422.788,257.027 423.012,257.129C423.236,257.232 423.413,257.367 423.544,257.535L424.874,255.995C424.734,255.855 424.568,255.727 424.377,255.61C424.186,255.494 423.976,255.396 423.747,255.316C423.518,255.237 423.28,255.174 423.033,255.127C422.786,255.081 422.536,255.057 422.284,255.057C421.743,255.057 421.234,255.144 420.758,255.316C420.282,255.489 419.869,255.736 419.519,256.058C419.169,256.38 418.894,256.77 418.693,257.227C418.492,257.685 418.392,258.198 418.392,258.767C418.392,259.346 418.492,259.864 418.693,260.321C418.894,260.779 419.169,261.168 419.519,261.49C419.704,261.661 419.907,261.809 420.127,261.937L418,261.937L418,252.21L425.812,252.21ZM532.772,259.215L532.478,259.215C532.226,259.215 531.972,259.227 531.715,259.25C531.458,259.274 531.23,259.318 531.029,259.383C530.828,259.449 530.663,259.544 530.532,259.67C530.401,259.796 530.336,259.962 530.336,260.167C530.336,260.298 530.366,260.41 530.427,260.503C530.488,260.597 530.565,260.671 530.658,260.727C530.751,260.783 530.859,260.823 530.98,260.846C531.101,260.87 531.218,260.881 531.33,260.881C531.797,260.881 532.154,260.753 532.401,260.496C532.648,260.24 532.772,259.892 532.772,259.453L532.772,259.215ZM500.068,259.215L499.774,259.215C499.522,259.215 499.268,259.227 499.011,259.25C498.754,259.274 498.526,259.318 498.325,259.383C498.124,259.449 497.959,259.544 497.828,259.67C497.697,259.796 497.632,259.962 497.632,260.167C497.632,260.298 497.662,260.41 497.723,260.503C497.784,260.597 497.861,260.671 497.954,260.727C498.047,260.783 498.155,260.823 498.276,260.846C498.397,260.87 498.514,260.881 498.626,260.881C499.093,260.881 499.45,260.753 499.697,260.496C499.944,260.24 500.068,259.892 500.068,259.453L500.068,259.215ZM575.5,259.215L575.206,259.215C574.954,259.215 574.7,259.227 574.443,259.25C574.186,259.274 573.958,259.318 573.757,259.383C573.556,259.449 573.391,259.544 573.26,259.67C573.129,259.796 573.064,259.962 573.064,260.167C573.064,260.298 573.094,260.41 573.155,260.503C573.216,260.597 573.293,260.671 573.386,260.727C573.479,260.783 573.587,260.823 573.708,260.846C573.829,260.87 573.946,260.881 574.058,260.881C574.525,260.881 574.882,260.753 575.129,260.496C575.376,260.24 575.5,259.892 575.5,259.453L575.5,259.215ZM550.398,258.753C550.398,258.529 550.358,258.31 550.279,258.095C550.2,257.881 550.088,257.689 549.943,257.521C549.798,257.353 549.623,257.218 549.418,257.115C549.213,257.013 548.979,256.961 548.718,256.961C548.447,256.961 548.209,257.013 548.004,257.115C547.799,257.218 547.626,257.351 547.486,257.514C547.346,257.678 547.241,257.867 547.171,258.081C547.101,258.296 547.066,258.515 547.066,258.739C547.066,258.963 547.101,259.185 547.171,259.404C547.241,259.624 547.346,259.817 547.486,259.985C547.626,260.153 547.799,260.289 548.004,260.391C548.209,260.494 548.447,260.545 548.718,260.545C548.979,260.545 549.213,260.494 549.418,260.391C549.623,260.289 549.798,260.153 549.943,259.985C550.088,259.817 550.2,259.626 550.279,259.411C550.358,259.197 550.398,258.977 550.398,258.753ZM521.614,257.969C521.614,257.605 521.5,257.293 521.271,257.031C521.042,256.77 520.699,256.639 520.242,256.639C520.018,256.639 519.813,256.674 519.626,256.744C519.439,256.814 519.276,256.91 519.136,257.031C518.996,257.153 518.884,257.295 518.8,257.458C518.716,257.622 518.669,257.792 518.66,257.969L521.614,257.969ZM439.224,257.969C439.224,257.605 439.11,257.293 438.881,257.031C438.652,256.77 438.309,256.639 437.852,256.639C437.628,256.639 437.423,256.674 437.236,256.744C437.049,256.814 436.886,256.91 436.746,257.031C436.606,257.153 436.494,257.295 436.41,257.458C436.326,257.622 436.279,257.792 436.27,257.969L439.224,257.969ZM567.926,257.969C567.926,257.605 567.812,257.293 567.583,257.031C567.354,256.77 567.011,256.639 566.554,256.639C566.33,256.639 566.125,256.674 565.938,256.744C565.751,256.814 565.588,256.91 565.448,257.031C565.308,257.153 565.196,257.295 565.112,257.458C565.028,257.622 564.981,257.792 564.972,257.969L567.926,257.969ZM480.286,257.969C480.286,257.605 480.172,257.293 479.943,257.031C479.714,256.77 479.371,256.639 478.914,256.639C478.69,256.639 478.485,256.674 478.298,256.744C478.111,256.814 477.948,256.91 477.808,257.031C477.668,257.153 477.556,257.295 477.472,257.458C477.388,257.622 477.341,257.792 477.332,257.969L480.286,257.969Z"/>
        <g transform="matrix(1,0,0,1,-9.1255,67.8183)">
            <text x="426.104px" y="183.249px" style="font-family:'AvenirNext-Bold', 'Avenir Next', sans-serif;font-weight:700;font-size:14px;">Name Service Switch</text>
        </g>
        <g transform="matrix(1,0,0,1,57.7845,88.9758)">
            <text x="426.104px" y="183.249px" style="font-family:'AvenirNext-Bold', 'Avenir Next', sans-serif;font-weight:700;font-size:14px;">libnss_sector<tspan x="513.856px 521.78px " y="183.249px 183.249px ">a.</tspan>so</text>
        </g>
    </g>
    <g transform="matrix(0.726213,0,0,0.771474,10.6338,46.2566)">
        <path d="M292,188.899L292,237.033" style="fill:none;stroke:black;stroke-width:4px;stroke-linejoin:miter;stroke-miterlimit:1;stroke-dasharray:4,8.01,4,8.01;"/>
    </g>
    <g transform="matrix(1,0,0,1,119.816,-23.8056)">
        <text x="426.104px" y="183.249px" style="font-family:'AvenirNext-Bold', 'Avenir Next', sans-serif;font-weight:700;font-size:14px;">Get da<tspan x="470.918px " y="183.249px ">t</tspan>a via <tspan x="510.804px 521.01px " y="183.249px 183.249px ">AP</tspan>I</text>
    </g>
    <g transform="matrix(1,0,0,1,-59.0275,-136.684)">
        <text x="426.104px" y="183.249px" style="font-family:'AvenirNext-Bold', 'Avenir Next', sans-serif;font-weight:700;font-size:14px;">Upload to GitHub</text>
    </g>
</svg>
